<?xml version="1.0" encoding="UTF-8"?>
<!-- Created with Inkscape (http://www.inkscape.org/) -->
<svg width="848.77" height="465.82" version="1.1" viewBox="0 0 224.57 123.25" xmlns="http://www.w3.org/2000/svg" xmlns:cc="http://creativecommons.org/ns#" xmlns:dc="http://purl.org/dc/elements/1.1/" xmlns:rdf="http://www.w3.org/1999/02/22-rdf-syntax-ns#">
 <defs>
  <marker id="Arrow2Mend" overflow="visible" orient="auto">
   <path transform="scale(-.6)" d="m8.7186 4.0337-10.926-4.0177 10.926-4.0177c-1.7455 2.3721-1.7354 5.6175-6e-7 8.0354z" fill-rule="evenodd" stroke="#000" stroke-linejoin="round" stroke-width=".625"/>
  </marker>
  <marker id="Arrow2Mend-3" overflow="visible" orient="auto">
   <path transform="scale(-.6)" d="m8.7186 4.0337-10.926-4.0177 10.926-4.0177c-1.7455 2.3721-1.7354 5.6175-6e-7 8.0354z" fill-rule="evenodd" stroke="#000" stroke-linejoin="round" stroke-width=".625"/>
  </marker>
  <marker id="Arrow2Mend-6" overflow="visible" orient="auto">
   <path transform="scale(-.6)" d="m8.7186 4.0337-10.926-4.0177 10.926-4.0177c-1.7455 2.3721-1.7354 5.6175-6e-7 8.0354z" fill-rule="evenodd" stroke="#000" stroke-linejoin="round" stroke-width=".625"/>
  </marker>
 </defs>
 <metadata>
  <rdf:RDF>
   <cc:Work rdf:about="">
    <dc:format>image/svg+xml</dc:format>
    <dc:type rdf:resource="http://purl.org/dc/dcmitype/StillImage"/>
    <dc:title/>
   </cc:Work>
  </rdf:RDF>
 </metadata>
 <g transform="translate(-7.986 -7.2477)">
  <rect x="11.632" y="10.894" width="217.28" height="40.881" ry="4.4312" fill="#e3e3e3" stroke="#200" stroke-linecap="round" stroke-width="2"/>
  <g>
   <rect x="25.435" y="18.621" width="27.592" height="25.324" ry="0" fill="#fff" stroke="#200" stroke-linecap="round" stroke-width="2"/>
   <text x="30.521179" y="35.228233" fill="#000000" font-family="sans-serif" font-size="10.583px" letter-spacing="0px" stroke-width=".26458" word-spacing="0px" style="line-height:1.25" xml:space="preserve"><tspan x="30.521179" y="35.228233" stroke-width=".26458">ssh</tspan></text>
  </g>
  <g transform="translate(-7.1589 81.836)">
   <rect x="25.579" y="18.765" width="35.054" height="26.105" ry="0" fill="#bdffff" stroke="#00807e" stroke-linecap="round" stroke-width="2.2887"/>
   <text x="31.063459" y="35.762772" fill="#000000" font-family="sans-serif" font-size="10.583px" letter-spacing="0px" stroke-width=".26458" word-spacing="0px" style="line-height:1.25" xml:space="preserve"><tspan x="31.063459" y="35.762772" stroke-width=".26458">sshd</tspan></text>
  </g>
  <g transform="translate(92.533 -.21592)" stroke-width="2">
   <rect x="26.29" y="19.475" width="101.79" height="23.615" ry="0" fill="#fff" stroke="#200" stroke-linecap="round"/>
   <text x="30.521179" y="35.228233" fill="#000000" font-family="sans-serif" font-size="10.583px" letter-spacing="0px" word-spacing="0px" style="line-height:1.25" xml:space="preserve"><tspan x="30.521179" y="35.228233" stroke-width="2">ssh-broker-agent</tspan></text>
  </g>
  <g transform="translate(234.32 4.8622)">
   <g transform="translate(-178 76.439)">
    <rect x="26.392" y="19.578" width="109.33" height="24.479" ry="0" fill="#bdffc4" stroke="#038000" stroke-linecap="round" stroke-width="2"/>
    <text x="34.671577" y="35.762772" fill="#000000" font-family="sans-serif" font-size="10.583px" letter-spacing="0px" stroke-width=".26458" word-spacing="0px" style="line-height:1.25" xml:space="preserve"><tspan x="34.671577" y="35.762772" stroke-width=".26458">ssh-broker-server</tspan></text>
   </g>
  </g>
  <g fill="none" stroke="#000" stroke-miterlimit="2" stroke-width="2">
   <path d="m37.952 45.232-5.3454 53.988" marker-end="url(#Arrow2Mend)"/>
   <path d="m134.66 44.042-5.3454 53.988" marker-end="url(#Arrow2Mend-3)"/>
   <path d="m53.027 30.38 62.928 0.83297" marker-end="url(#Arrow2Mend-6)"/>
  </g>
  <g fill="#000000" font-family="sans-serif" font-size="10.583px" letter-spacing="0px" stroke-width=".26458" word-spacing="0px">
   <text x="26.74844" y="73.519699" style="line-height:1.25" xml:space="preserve"><tspan x="26.74844" y="73.519699" stroke-width=".26458">1</tspan></text>
   <text x="77.341591" y="26.023985" style="line-height:1.25" xml:space="preserve"><tspan x="77.341591" y="26.023985" stroke-width=".26458">2</tspan></text>
   <text x="123.24622" y="72.856575" style="line-height:1.25" xml:space="preserve"><tspan x="123.24622" y="72.856575" stroke-width=".26458">3</tspan></text>
  </g>
 </g>
</svg>
